name rise31.4854peak64.571fall78.6902.mot
datacolumns 19
datarows 18
range 2.87166000000000 2.90000500000000
endheader
time	ground_force1_vx	ground_force1_vy	ground_force1_vz	ground_force1_px	ground_force1_py	ground_force1_pz	ground_force2_vx	ground_force2_vy	ground_force2_vz	ground_force2_px	ground_force2_py	ground_force2_pz	ground_torque1_x	ground_torque1_y	ground_torque1_z	ground_torque2_x	ground_torque2_y	ground_torque2_z	
2.87166000000000	64.74440300000001	773.67192599999998	53.17913200000000	0.29155900000000	0.00000000000000	0.10166300000000	0.00000000000000	0.00000000000000	0.00000000000000	0.00000000000000	0.00000000000000	0.00000000000000	0.00000000000000	16.82987400000000	0.00000000000000	0.00000000000000	0.00000000000000	0.00000000000000	
2.87332400000000	64.07908399999999	775.66617399999996	53.35797200000000	0.29075500000000	0.00000000000000	0.10172500000000	0.00000000000000	0.00000000000000	0.00000000000000	0.00000000000000	0.00000000000000	0.00000000000000	0.00000000000000	16.94517700000000	0.00000000000000	0.00000000000000	0.00000000000000	0.00000000000000	
2.87500100000000	63.42223000000000	777.53199700000005	53.53574200000000	0.28997900000000	0.00000000000000	0.10178800000000	0.00000000000000	0.00000000000000	0.00000000000000	0.00000000000000	0.00000000000000	0.00000000000000	0.00000000000000	17.06042500000000	0.00000000000000	0.00000000000000	0.00000000000000	0.00000000000000	
2.87666000000000	62.77380700000000	779.26745200000005	53.71221500000000	0.28923000000000	0.00000000000000	0.10185100000000	0.00000000000000	0.00000000000000	0.00000000000000	0.00000000000000	0.00000000000000	0.00000000000000	0.00000000000000	17.17541100000000	0.00000000000000	0.00000000000000	0.00000000000000	0.00000000000000	
2.87832800000000	62.13370100000000	780.87077799999997	53.88710800000000	0.28850300000000	0.00000000000000	0.10191400000000	0.00000000000000	0.00000000000000	0.00000000000000	0.00000000000000	0.00000000000000	0.00000000000000	0.00000000000000	17.28989700000000	0.00000000000000	0.00000000000000	0.00000000000000	0.00000000000000	
2.87999400000000	61.50171600000000	782.34040700000003	54.06008400000000	0.28779700000000	0.00000000000000	0.10197800000000	0.00000000000000	0.00000000000000	0.00000000000000	0.00000000000000	0.00000000000000	0.00000000000000	0.00000000000000	17.40361600000000	0.00000000000000	0.00000000000000	0.00000000000000	0.00000000000000	
2.88165800000000	60.87758400000000	783.67498200000000	54.23076300000000	0.28710800000000	0.00000000000000	0.10204300000000	0.00000000000000	0.00000000000000	0.00000000000000	0.00000000000000	0.00000000000000	0.00000000000000	0.00000000000000	17.51628000000000	0.00000000000000	0.00000000000000	0.00000000000000	0.00000000000000	
2.88332800000000	60.26097000000000	784.87336900000003	54.39872100000000	0.28643400000000	0.00000000000000	0.10210900000000	0.00000000000000	0.00000000000000	0.00000000000000	0.00000000000000	0.00000000000000	0.00000000000000	0.00000000000000	17.62757900000000	0.00000000000000	0.00000000000000	0.00000000000000	0.00000000000000	
2.88499100000000	59.65148000000000	785.93466899999999	54.56350000000000	0.28577100000000	0.00000000000000	0.10217600000000	0.00000000000000	0.00000000000000	0.00000000000000	0.00000000000000	0.00000000000000	0.00000000000000	0.00000000000000	17.73718300000000	0.00000000000000	0.00000000000000	0.00000000000000	0.00000000000000	
2.88666100000000	59.04866400000000	786.85823100000005	54.72461000000000	0.28511700000000	0.00000000000000	0.10224400000000	0.00000000000000	0.00000000000000	0.00000000000000	0.00000000000000	0.00000000000000	0.00000000000000	0.00000000000000	17.84474900000000	0.00000000000000	0.00000000000000	0.00000000000000	0.00000000000000	
2.88832300000000	58.45202600000000	787.64365799999996	54.88153600000000	0.28446800000000	0.00000000000000	0.10231400000000	0.00000000000000	0.00000000000000	0.00000000000000	0.00000000000000	0.00000000000000	0.00000000000000	0.00000000000000	17.94992000000000	0.00000000000000	0.00000000000000	0.00000000000000	0.00000000000000	
2.89000000000000	57.86102900000000	788.29081499999995	55.03374400000000	0.28382100000000	0.00000000000000	0.10238400000000	0.00000000000000	0.00000000000000	0.00000000000000	0.00000000000000	0.00000000000000	0.00000000000000	0.00000000000000	18.05233200000000	0.00000000000000	0.00000000000000	0.00000000000000	0.00000000000000	
2.89165400000000	57.27510300000000	788.79983900000002	55.18068700000000	0.28317300000000	0.00000000000000	0.10245600000000	0.00000000000000	0.00000000000000	0.00000000000000	0.00000000000000	0.00000000000000	0.00000000000000	0.00000000000000	18.15161400000000	0.00000000000000	0.00000000000000	0.00000000000000	0.00000000000000	
2.89332900000000	56.69365000000000	789.17113900000004	55.32181000000000	0.28252100000000	0.00000000000000	0.10253000000000	0.00000000000000	0.00000000000000	0.00000000000000	0.00000000000000	0.00000000000000	0.00000000000000	0.00000000000000	18.24739500000000	0.00000000000000	0.00000000000000	0.00000000000000	0.00000000000000	
2.89500100000000	56.11605300000000	789.40540299999998	55.45655300000000	0.28186300000000	0.00000000000000	0.10260500000000	0.00000000000000	0.00000000000000	0.00000000000000	0.00000000000000	0.00000000000000	0.00000000000000	0.00000000000000	18.33930100000000	0.00000000000000	0.00000000000000	0.00000000000000	0.00000000000000	
2.89668100000000	55.54168100000000	789.50359800000001	55.58436100000000	0.28119500000000	0.00000000000000	0.10268100000000	0.00000000000000	0.00000000000000	0.00000000000000	0.00000000000000	0.00000000000000	0.00000000000000	0.00000000000000	18.42696400000000	0.00000000000000	0.00000000000000	0.00000000000000	0.00000000000000	
2.89832400000000	54.96989600000000	789.46696999999995	55.70468800000000	0.28051400000000	0.00000000000000	0.10275900000000	0.00000000000000	0.00000000000000	0.00000000000000	0.00000000000000	0.00000000000000	0.00000000000000	0.00000000000000	18.51002400000000	0.00000000000000	0.00000000000000	0.00000000000000	0.00000000000000	
2.90000500000000	54.40005800000000	789.29704400000003	55.81699800000000	0.27981700000000	0.00000000000000	0.10283900000000	0.00000000000000	0.00000000000000	0.00000000000000	0.00000000000000	0.00000000000000	0.00000000000000	0.00000000000000	18.58813000000000	0.00000000000000	0.00000000000000	0.00000000000000	0.00000000000000	
